# Blender 3.6.1
# www.blender.org
mtllib rock.mtl
o Sphere
v 0.007876 0.011856 0.000000
v -0.645406 0.418434 -0.293300
v -0.154336 0.038529 -0.117479
v -0.130074 0.038529 -0.149523
v 0.161904 2.491295 0.263583
v 0.648564 0.822530 0.694440
v 0.653296 2.122750 0.426074
v 0.161904 2.491295 -0.364664
v 0.716623 2.075255 0.230727
v 0.733454 1.920499 0.206476
v -0.606169 0.868780 0.742991
v -0.720801 0.556469 -0.327150
v -0.216210 1.931220 -0.967731
v -0.040576 2.409732 0.285771
v -0.567063 0.975325 0.810267
v -0.040576 2.409732 -0.651483
v -0.173196 2.048411 -0.931009
v 0.134262 0.038529 -0.159809
v 0.646338 0.418434 -0.323351
v -0.237954 0.080877 -0.178039
v -0.630587 0.418434 -0.323351
v -0.142503 0.045931 -0.162995
v -0.118511 0.038529 -0.159809
v 0.007876 0.031640 -0.156843
v 0.036691 0.032051 -0.157020
v 0.068099 0.033372 -0.157589
v 0.105702 0.035931 -0.158690
v -0.089950 0.035931 -0.158690
v -0.052347 0.033372 -0.157589
v -0.020940 0.032051 -0.157020
v -0.182618 1.936077 -0.976668
v 0.656800 0.441435 -0.333252
v -0.096210 1.782222 -0.910436
v -0.195391 1.931220 -0.974577
v -0.220728 1.918911 -0.969278
v -0.708551 0.589843 -0.397139
v -0.052465 0.023523 0.065403
v -0.568479 0.323577 -0.258763
v -0.661685 0.418434 -0.235133
v -0.162032 0.038529 -0.101874
v -0.017937 0.029946 0.140657
v -0.032860 0.026410 0.106596
v -0.043570 0.024517 0.083453
v -0.060744 0.023140 0.049697
v -0.069246 0.023269 0.034625
v -0.078834 0.023944 0.018695
v -0.090768 0.025343 0.000000
v -0.107459 0.027934 -0.024866
v -0.134857 0.032979 -0.064082
v -0.736475 0.513765 -0.177331
v -0.612678 0.851048 0.727674
v -0.523441 0.280758 -0.264084
v -0.268612 0.093301 -0.183387
v 0.631717 0.760656 0.676180
v -0.556288 0.868780 0.787362
v 0.594271 1.090439 0.817697
v 0.642753 0.841116 0.709596
v -0.546194 0.949641 0.820999
v -0.549419 0.812085 0.763009
v 0.647260 0.418434 -0.321480
v 0.115574 0.032680 -0.116734
v 0.079194 0.023584 -0.051651
v 0.065123 0.020328 -0.025702
v 0.057328 0.018750 -0.010662
v 0.052123 0.017906 0.000000
v 0.048181 0.017475 0.008690
v 0.044879 0.017332 0.016613
v 0.041846 0.017442 0.024603
v 0.038782 0.017832 0.033499
v 0.035327 0.018612 0.044532
v 0.030854 0.020066 0.060129
v 0.023782 0.023004 0.086676
v 0.007876 0.030742 0.149724
v 0.675847 0.761179 0.618239
v 0.864109 0.719097 0.018210
v 0.138101 0.038529 -0.156394
v 0.677789 0.450733 -0.303269
v 0.644029 0.415467 -0.322074
v 0.143102 0.041257 -0.160983
v -0.000229 0.035033 0.182876
v 0.023586 0.145782 0.449679
v 0.627127 0.735597 0.665836
vn 0.6298 -0.7357 0.2492
vn -0.7233 -0.6602 -0.2024
vn -0.1053 -0.9912 -0.0797
vn 0.6000 0.8000 -0.0000
vn 0.6168 -0.3726 0.6934
vn -0.3736 0.9276 -0.0000
vn -0.3041 0.2279 -0.9250
vn 0.6705 -0.6642 -0.3307
vn -0.8286 -0.5095 -0.2319
vn -0.6480 -0.2221 0.7285
vn -0.6168 -0.3726 0.6934
vn -0.2888 0.3812 -0.8782
vn 0.7791 0.1789 -0.6009
vn -0.0396 -0.9919 -0.1203
vn -0.0642 -0.9918 -0.1109
vn 0.0642 -0.9918 -0.1109
vn 0.0396 -0.9919 -0.1203
vn 0.0134 -0.9920 -0.1251
vn -0.0134 -0.9920 -0.1251
vn -0.0864 -0.9915 -0.0971
vn -0.2489 -0.9272 -0.2798
vn -0.6705 -0.6642 -0.3306
vn -0.7696 -0.5134 -0.3795
vn -0.3445 -0.9233 -0.1699
vn -0.3026 -0.9252 -0.2291
vn -0.9388 0.3446 -0.0000
vn -0.1303 -0.9908 -0.0365
vn -0.1355 -0.9907 -0.0123
vn -0.1355 -0.9907 0.0123
vn -0.1303 -0.9908 0.0365
vn -0.1201 -0.9910 0.0592
vn -0.0642 -0.9918 0.1109
vn -0.0396 -0.9919 0.1203
vn -0.1201 -0.9910 -0.0592
vn -0.0864 -0.9915 0.0971
vn -0.1053 -0.9912 0.0797
vn 0.9537 0.0575 0.2952
vn -0.0413 0.3565 0.9334
vn 0.7414 -0.3676 0.5614
vn 0.0507 -0.3890 0.9199
vn -0.6246 -0.7000 0.3463
vn -0.0000 -0.3954 -0.9185
vn 0.2489 -0.9272 -0.2798
vn -0.0134 -0.9920 0.1251
vn 0.0134 -0.9920 0.1251
vn 0.0396 -0.9919 0.1203
vn 0.0642 -0.9918 0.1109
vn 0.0864 -0.9915 0.0971
vn 0.1053 -0.9912 0.0797
vn 0.1201 -0.9910 0.0592
vn 0.1303 -0.9908 0.0365
vn 0.1355 -0.9907 0.0123
vn 0.1355 -0.9907 -0.0123
vn 0.1303 -0.9908 -0.0365
vn 0.1201 -0.9910 -0.0592
vn 0.1053 -0.9912 -0.0797
vn 0.0864 -0.9915 -0.0971
vn 0.7696 -0.5134 -0.3796
vn 0.6297 -0.7358 0.2492
vn -0.6705 -0.6642 -0.3307
vn -0.6246 -0.6999 0.3463
vn -0.6245 -0.7000 0.3463
vn -0.0000 -0.3955 -0.9185
vn 0.7696 -0.5134 -0.3795
vt 0.621574 0.048794
vt 0.375675 0.340316
vt 0.393897 0.013089
vt 0.937500 0.215658
vt 0.950143 0.250000
vt 0.937500 0.250000
vt 0.890625 0.000000
vt 0.906250 0.062500
vt 0.875000 0.062500
vt 0.413129 0.789726
vt 0.452943 0.665260
vt 0.620185 0.789726
vt 0.375000 0.346842
vt 0.375000 0.362955
vt 0.372573 0.367795
vt 0.337845 0.764406
vt 0.735929 0.760247
vt 0.789812 0.622046
vt 0.789156 0.625000
vt 0.785402 0.625000
vt 0.569561 0.248926
vt 0.569587 0.250000
vt 0.569146 0.250000
vt 0.937500 0.291012
vt 0.144892 0.375000
vt 0.145983 0.400572
vt 0.133758 0.375000
vt 0.143601 0.360235
vt 0.131228 0.370382
vt 0.783168 0.626265
vt 0.752103 0.589707
vt 0.783071 0.655520
vt 0.796875 0.000000
vt 0.809479 0.050416
vt 0.785045 0.047319
vt 0.828125 0.000000
vt 0.842228 0.056411
vt 0.815521 0.050416
vt 0.671875 0.000000
vt 0.684479 0.050416
vt 0.657772 0.056410
vt 0.703125 0.000000
vt 0.714955 0.047319
vt 0.690521 0.050416
vt 0.734375 0.000000
vt 0.745964 0.046358
vt 0.722545 0.047319
vt 0.765625 0.000000
vt 0.777455 0.047319
vt 0.754036 0.046358
vt 0.845272 0.056411
vt 0.859375 0.000000
vt 0.875000 0.068356
vt 0.862777 0.062500
vt 0.930413 0.250000
vt 0.931614 0.200156
vt 0.919590 0.062500
vt 0.906250 0.096005
vt 0.953125 0.000000
vt 0.962543 0.037673
vt 0.940752 0.049494
vt 0.984375 0.000000
vt 0.992275 0.031602
vt 0.974957 0.037673
vt 0.015625 0.000000
vt 0.022706 0.028323
vt 0.007725 0.031602
vt 0.046875 0.000000
vt 0.053561 0.026743
vt 0.039794 0.028323
vt 0.078125 0.000000
vt 0.084735 0.026439
vt 0.071439 0.026743
vt 0.171875 0.000000
vt 0.180401 0.034102
vt 0.164459 0.029666
vt 0.203125 0.000000
vt 0.213722 0.042388
vt 0.194599 0.034102
vt 0.934248 0.049494
vt 0.921875 0.000000
vt 0.140625 0.000000
vt 0.148041 0.029666
vt 0.133790 0.027338
vt 0.109375 0.000000
vt 0.116210 0.027338
vt 0.102765 0.026439
vt 0.417407 0.678681
vt 0.388014 0.346978
vt 0.355493 0.428271
vt 0.257400 0.138099
vt 0.925104 0.300928
vt 0.632719 0.064658
vt 0.637223 0.062500
vt 0.633165 0.062500
vt 0.496687 0.335715
vt 0.562983 0.259597
vt 0.245438 0.044253
vt 0.223778 0.042388
vt 0.234375 0.000000
vt 0.265625 0.000000
vt 0.272155 0.026121
vt 0.254562 0.044253
vt 0.296875 0.000000
vt 0.301684 0.019237
vt 0.290345 0.026121
vt 0.328125 0.000000
vt 0.332082 0.015830
vt 0.323316 0.019237
vt 0.359375 0.000000
vt 0.362876 0.014002
vt 0.355418 0.015830
vt 0.390625 0.000000
vt 0.387124 0.014002
vt 0.421875 0.000000
vt 0.425083 0.012831
vt 0.418603 0.013089
vt 0.453125 0.000000
vt 0.456416 0.013165
vt 0.449917 0.012831
vt 0.484375 0.000000
vt 0.487919 0.014175
vt 0.481084 0.013165
vt 0.515625 0.000000
vt 0.519663 0.016153
vt 0.512081 0.014175
vt 0.546875 0.000000
vt 0.551838 0.019851
vt 0.542837 0.016153
vt 0.578125 0.000000
vt 0.584995 0.027479
vt 0.573162 0.019851
vt 0.609375 0.000000
vt 0.602505 0.027479
vt 0.654728 0.056410
vt 0.628426 0.048794
vt 0.570592 0.256834
vt 0.238140 0.054308
vt 0.965654 0.278324
vt 0.149723 0.394407
vt 0.457935 0.627655
vt 0.911662 0.105836
vt 0.241297 0.054308
vt 0.640625 0.000000
s 0
f 61/1/1 82/2/1 68/3/1
f 38/4/2 39/5/2 2/6/2
f 1/7/3 3/8/3 4/9/3
f 5/10/4 9/11/4 8/12/4
f 54/13/5 6/14/5 57/15/5
f 14/16/6 8/12/6 16/17/6
f 35/18/7 13/19/7 34/20/7
f 78/21/8 19/22/8 60/23/8
f 39/5/9 12/24/9 2/6/9
f 55/25/10 15/26/10 11/27/10
f 59/28/11 11/27/11 51/29/11
f 13/19/12 31/30/12 34/20/12
f 33/31/13 17/32/13 8/12/13
f 1/33/14 29/34/14 30/35/14
f 1/36/15 28/37/15 29/38/15
f 1/39/16 26/40/16 27/41/16
f 1/42/17 25/43/17 26/44/17
f 1/45/18 24/46/18 25/47/18
f 1/48/19 30/49/19 24/50/19
f 4/9/20 28/51/20 1/52/20
f 4/9/21 22/53/21 23/54/21
f 38/4/22 21/55/22 52/56/22
f 12/24/23 21/55/23 2/6/23
f 40/57/24 20/58/24 3/8/24
f 3/8/25 22/53/25 4/9/25
f 35/18/26 51/29/26 16/17/26
f 1/59/27 48/60/27 49/61/27
f 1/62/28 47/63/28 48/64/28
f 1/65/29 46/66/29 47/67/29
f 1/68/30 45/69/30 46/70/30
f 1/71/31 44/72/31 45/73/31
f 1/74/32 42/75/32 43/76/32
f 1/77/33 41/78/33 42/79/33
f 49/80/34 3/8/34 1/81/34
f 1/82/35 43/83/35 37/84/35
f 1/85/36 37/86/36 44/87/36
f 7/88/37 57/15/37 74/89/37
f 15/26/38 56/90/38 5/10/38
f 74/89/39 54/13/39 82/2/39
f 81/91/40 54/13/40 56/90/40
f 44/72/41 51/29/41 52/56/41
f 29/38/42 36/92/42 79/93/42
f 18/94/43 79/93/43 76/95/43
f 33/31/13 75/96/13 77/97/13
f 73/98/44 41/99/44 1/100/44
f 1/101/45 72/102/45 73/103/45
f 1/104/46 71/105/46 72/106/46
f 1/107/47 70/108/47 71/109/47
f 1/110/48 69/111/48 70/112/48
f 1/113/49 68/3/49 69/114/49
f 1/115/50 67/116/50 68/117/50
f 1/118/51 66/119/51 67/120/51
f 1/121/52 65/122/52 66/123/52
f 1/124/53 64/125/53 65/126/53
f 1/127/54 63/128/54 64/129/54
f 1/130/55 62/131/55 63/132/55
f 1/133/56 61/1/56 62/134/56
f 27/135/57 76/95/57 61/136/57
f 32/137/58 60/23/58 19/22/58
f 67/116/59 66/123/59 65/122/59
f 65/122/1 64/125/1 63/128/1
f 63/128/59 62/131/59 61/1/59
f 61/1/1 76/95/1 79/93/1
f 79/93/1 78/21/1 60/23/1
f 60/23/1 77/97/1 75/96/1
f 75/96/1 74/89/1 82/2/1
f 82/2/1 81/91/1 80/138/1
f 80/138/59 73/98/59 72/102/59
f 72/102/1 71/105/1 70/108/1
f 70/108/1 69/111/1 68/3/1
f 68/3/1 67/116/1 65/122/1
f 65/122/1 63/128/1 61/1/1
f 61/1/1 79/93/1 60/23/1
f 60/23/1 75/96/1 82/2/1
f 82/2/1 80/138/1 72/102/1
f 72/102/1 70/108/1 68/3/1
f 68/3/1 65/122/1 61/1/1
f 61/1/1 60/23/1 82/2/1
f 82/2/1 72/102/1 68/3/1
f 5/10/4 7/88/4 9/11/4
f 14/16/6 5/10/6 8/12/6
f 39/5/9 50/139/9 12/24/9
f 55/25/10 58/140/10 15/26/10
f 59/28/11 55/25/11 11/27/11
f 13/19/12 17/32/12 31/30/12
f 9/11/13 10/141/13 33/31/13
f 33/31/13 31/30/13 17/32/13
f 17/32/13 16/17/13 8/12/13
f 8/12/13 9/11/13 33/31/13
f 4/9/20 23/54/20 28/51/20
f 38/4/60 2/6/60 21/55/60
f 12/24/23 36/92/23 21/55/23
f 40/57/24 53/142/24 20/58/24
f 3/8/25 20/58/25 22/53/25
f 17/32/26 13/19/26 35/18/26
f 35/18/26 36/92/26 12/24/26
f 12/24/26 50/139/26 51/29/26
f 51/29/26 11/27/26 15/26/26
f 15/26/26 14/16/26 16/17/26
f 16/17/26 17/32/26 35/18/26
f 35/18/26 12/24/26 51/29/26
f 51/29/26 15/26/26 16/17/26
f 49/80/34 40/57/34 3/8/34
f 74/89/37 75/96/37 10/141/37
f 10/141/37 9/11/37 7/88/37
f 7/88/37 56/90/37 57/15/37
f 57/15/37 6/14/37 74/89/37
f 74/89/37 10/141/37 7/88/37
f 5/10/38 14/16/38 15/26/38
f 15/26/38 58/140/38 56/90/38
f 56/90/38 7/88/38 5/10/38
f 74/89/39 6/14/39 54/13/39
f 56/90/40 58/140/40 55/25/40
f 55/25/40 59/28/40 81/91/40
f 81/91/40 82/2/40 54/13/40
f 54/13/40 57/15/40 56/90/40
f 56/90/40 55/25/40 81/91/40
f 52/56/41 53/142/41 40/57/41
f 40/57/41 49/80/41 48/60/41
f 48/60/41 47/63/41 46/66/41
f 46/66/61 45/69/61 44/72/61
f 44/72/41 37/86/41 43/83/41
f 43/83/62 42/75/62 41/78/62
f 41/78/41 80/138/41 81/91/41
f 81/91/41 59/28/41 51/29/41
f 51/29/41 50/139/41 39/5/41
f 39/5/41 38/4/41 52/56/41
f 52/56/41 40/57/41 48/60/41
f 48/60/41 46/66/41 44/72/41
f 44/72/41 43/83/41 41/78/41
f 41/78/41 81/91/41 51/29/41
f 51/29/41 39/5/41 52/56/41
f 52/56/41 48/60/41 44/72/41
f 44/72/41 41/78/41 51/29/41
f 18/94/42 27/135/42 26/44/42
f 26/44/42 25/47/42 24/50/42
f 24/50/42 30/35/42 29/38/42
f 29/38/63 28/51/63 23/54/63
f 23/54/42 22/53/42 20/58/42
f 20/58/42 53/142/42 52/56/42
f 52/56/42 21/55/42 36/92/42
f 36/92/42 35/18/42 34/20/42
f 34/20/42 31/30/42 33/31/42
f 33/31/42 32/137/42 19/22/42
f 19/22/42 78/21/42 79/93/42
f 79/93/42 18/94/42 26/44/42
f 26/44/42 24/50/42 29/38/42
f 29/38/42 23/54/42 20/58/42
f 20/58/42 52/56/42 36/92/42
f 36/92/42 34/20/42 33/31/42
f 33/31/42 19/22/42 79/93/42
f 79/93/42 26/44/42 29/38/42
f 29/38/42 20/58/42 36/92/42
f 36/92/42 33/31/42 79/93/42
f 77/97/13 32/137/13 33/31/13
f 33/31/13 10/141/13 75/96/13
f 73/98/44 80/143/44 41/99/44
f 61/136/57 1/144/57 27/135/57
f 27/135/57 18/94/57 76/95/57
f 32/137/64 77/97/64 60/23/64
